HIERARCHY
ROOT Bip001_Pelvis
{
  OFFSET 7.937 94.8971 -8.5489
  CHANNELS 6 Xposition Yposition Zposition Zrotation Xrotation Yrotation
  JOINT Bip001_Spine
  {
    OFFSET 1.44608e-005 10.4157 -0.0118244
    CHANNELS 3 Zrotation Xrotation Yrotation
    JOINT Bip001_L_Thigh
    {
      OFFSET 11.2582 -10.4157 0.0118432
      CHANNELS 3 Zrotation Xrotation Yrotation
      JOINT Bip001_L_Calf
      {
        OFFSET -0.720717 -44.8687 0.366937
        CHANNELS 3 Zrotation Xrotation Yrotation
        JOINT Bip001_L_Foot
        {
          OFFSET -0.664439 -41.3745 -3.62995
          CHANNELS 3 Zrotation Xrotation Yrotation
          JOINT Bip001_L_Toe0
          {
            OFFSET 0.0541047 -10.4146 13.4033
            CHANNELS 3 Zrotation Xrotation Yrotation
            End Site
            {
              OFFSET -1.04503e-005 0 7.70137
            }
          }
        }
      }
    }
    JOINT Bip001_R_Thigh
    {
      OFFSET -11.2582 -10.4156 0.0118122
      CHANNELS 3 Zrotation Xrotation Yrotation
      JOINT Bip001_R_Calf
      {
        OFFSET 0.72059 -44.8687 0.36676
        CHANNELS 3 Zrotation Xrotation Yrotation
        JOINT Bip001_R_Foot
        {
          OFFSET 0.664321 -41.3745 -3.62979
          CHANNELS 3 Zrotation Xrotation Yrotation
          JOINT Bip001_R_Toe0
          {
            OFFSET -0.05417 -10.4146 13.4033
            CHANNELS 3 Zrotation Xrotation Yrotation
            End Site
            {
              OFFSET -1.04873e-005 0 7.70137
            }
          }
        }
      }
    }
    JOINT Bip001_Spine1
    {
      OFFSET 1.90638e-005 14.8539 1.10727
      CHANNELS 3 Zrotation Xrotation Yrotation
      JOINT Bip001_Spine2
      {
        OFFSET 2.28934e-005 14.7848 -1.7233
        CHANNELS 3 Zrotation Xrotation Yrotation
        JOINT Bip001_Neck
        {
          OFFSET 2.24514e-005 15.6905 -0.498826
          CHANNELS 3 Zrotation Xrotation Yrotation
          JOINT Bip001_L_Clavicle
          {
            OFFSET 6.17691 -0.000591152 0.00852867
            CHANNELS 3 Zrotation Xrotation Yrotation
            JOINT Bip001_L_UpperArm
            {
              OFFSET 11.773 -0.0611878 0.00197697
              CHANNELS 3 Zrotation Xrotation Yrotation
              JOINT Bip001_L_Forearm
              {
                OFFSET 26.4515 0.0817568 -2.19579
                CHANNELS 3 Zrotation Xrotation Yrotation
                JOINT Bip001_L_Hand
                {
                  OFFSET 32.8677 0.156744 1.67112
                  CHANNELS 3 Zrotation Xrotation Yrotation
                  JOINT Bip001_L_Finger0
                  {
                    OFFSET 6.16268 -2.25226 6.01674
                    CHANNELS 3 Zrotation Xrotation Yrotation
                    End Site
                    {
                      OFFSET 4.30499 -1.46662 0.618148
                    }
                  }
                  JOINT Bip001_L_Finger1
                  {
                    OFFSET 11.2957 -0.718374 -0.201963
                    CHANNELS 3 Zrotation Xrotation Yrotation
                    End Site
                    {
                      OFFSET 6.31952 -0.405163 -0.0802303
                    }
                  }
                }
              }
            }
          }
          JOINT Bip001_R_Clavicle
          {
            OFFSET -6.17691 -0.000574027 0.00851165
            CHANNELS 3 Zrotation Xrotation Yrotation
            JOINT Bip001_R_UpperArm
            {
              OFFSET -11.773 -0.0611516 0.00194365
              CHANNELS 3 Zrotation Xrotation Yrotation
              JOINT Bip001_R_Forearm
              {
                OFFSET -26.4514 0.0822334 -2.19736
                CHANNELS 3 Zrotation Xrotation Yrotation
                JOINT Bip001_R_Hand
                {
                  OFFSET -32.8677 0.156817 1.67144
                  CHANNELS 3 Zrotation Xrotation Yrotation
                  JOINT Bip001_R_Finger0
                  {
                    OFFSET -6.1627 -2.25224 6.0167
                    CHANNELS 3 Zrotation Xrotation Yrotation
                    End Site
                    {
                      OFFSET -4.30499 -1.46662 0.618134
                    }
                  }
                  JOINT Bip001_R_Finger1
                  {
                    OFFSET -11.2958 -0.718344 -0.201994
                    CHANNELS 3 Zrotation Xrotation Yrotation
                    End Site
                    {
                      OFFSET -6.31952 -0.405146 -0.0802475
                    }
                  }
                }
              }
            }
          }
          JOINT Bip001_Head
          {
            OFFSET 1.11782e-005 11.4912 2.09908
            CHANNELS 3 Zrotation Xrotation Yrotation
            End Site
            {
              OFFSET 2.95144e-005 21.2823 -2.83069e-005
            }
          }
        }
      }
    }
  }
}
MOTION
Frames:	15
Frame Time:	0.04
7.937 94.8971 -8.5489 -0.237533 -2.92534 -7.56103 0.411696 1.09055 -0.551606 5.66143 -5.87975 13.0024 -0.821805 18.2391 2.9269 -4.10004 -8.97507 0.00872184 0.898896 -9.70528 0.934771 -7.68771 -8.84441 2.19316 -1.26624 19.2538 7.77937 0.780454 -9.07955 -7.77892 -0.479345 -11.4936 0.101745 0.761796 2.19285 -1.11666 0.761795 2.19285 -1.11666 -0.946787 -0.0774791 3.36879 -25.1274 7.90499 -18.448 -56.6789 45.1388 14.3373 15.2695 2.42484 -27.7934 -4.35856 -0.541466 -4.3913 -4.77083e-015 1.59028e-015 -3.97569e-016 -1.59028e-015 3.18056e-015 -2.38542e-015 34.9691 3.61794 6.95564 45.2973 30.7137 -9.19816 7.32018 -37.7206 37.575 5.07214 -1.63002 -8.75069 -7.95139e-016 7.95139e-016 3.18055e-015 0 1.59028e-015 -0 -5.06015 -4.58316 3.98386 
8.27429 94.3989 -8.34121 -0.276787 -2.96106 -9.52115 0.451801 1.09049 -0.807162 5.91538 -6.50351 13.7101 -1.30372 20.9393 3.55545 -3.96053 -10.9897 0.531121 0.960745 -9.59869 1.31772 -7.5197 -10.5166 3.59016 -1.82077 21.9147 8.09366 0.992261 -10.3526 -6.8433 -0.335056 -11.4936 -0.0824288 0.864646 2.17136 -1.62747 0.864647 2.17136 -1.62747 -0.646736 1.15063 4.64993 -24.586 7.21853 -20.294 -57.9387 44.7857 15.5249 15.0242 1.99064 -27.6047 -5.03027 -0.481946 -4.1258 6.36111e-015 7.95139e-016 -0 6.36111e-015 1.59028e-015 -1.78906e-015 34.1213 1.31335 5.18867 45.2671 26.4323 -9.96827 7.99727 -40.1202 37.941 5.48821 -1.63452 -7.77274 -7.95139e-016 -3.18055e-015 -0 7.95139e-016 0 6.36111e-015 -5.67739 -5.62971 5.41859 
8.60623 93.5852 -7.96469 -0.508416 -3.13611 -10.8466 0.566851 1.06791 -1.19153 6.45037 -7.67953 13.8041 -2.03852 25.2192 4.03102 -3.69929 -13.8089 1.27305 0.888866 -9.50063 1.82058 -7.37917 -12.2806 4.23386 -2.39737 25.6941 8.17529 1.14237 -12.3739 -5.31735 -0.12593 -11.5036 -0.269175 1.09518 2.12435 -2.39685 1.09518 2.12435 -2.39685 -1.23879 2.31116 6.03733 -23.8895 6.46802 -21.432 -59.2869 45.2516 17.29 15.5368 2.29842 -27.6519 -5.22426 -0.562837 -4.18192 1.59028e-015 0 -7.45442e-016 3.18055e-015 0 -4.96962e-017 33.359 -1.0971 3.15895 43.7787 16.75 -11.8365 7.34796 -37.4266 38.3715 5.1057 -1.17673 -8.21121 2.38542e-015 -9.54166e-015 -1.59028e-015 3.97569e-015 -9.54167e-015 -4.77083e-015 -5.17022 -6.67699 6.49439 
8.83592 92.3989 -7.27908 -1.04647 -3.95179 -12.0397 0.699012 1.26034 -1.51863 7.59917 -8.64679 13.3638 -4.0433 30.6504 4.74296 -2.72024 -17.4736 2.64638 0.407843 -9.46605 2.27257 -6.91808 -13.8054 5.89613 -2.56081 30.59 9.35757 0.330497 -15.2066 -5.96155 0.336016 -11.5241 -0.718875 1.3493 2.50278 -3.04935 1.3493 2.50278 -3.04935 -2.04358 2.74326 7.18986 -23.0042 6.3242 -22.3445 -59.8044 45.3915 18.2809 16.9294 5.69209 -27.4983 -3.81572 -0.420713 -4.74854 -0 0 5.96354e-016 -1.59028e-015 7.95139e-016 1.19271e-015 33.3264 -2.54699 1.44797 39.6403 4.6473 -16.1062 9.76672 -34.7903 45.1422 1.99316 -0.357384 -11.5453 2.38542e-015 -9.54166e-015 -3.97569e-015 7.95139e-016 -9.54167e-015 -3.97569e-015 -4.4112 -7.65155 7.23652 
9.06364 90.8396 -6.45722 -1.86166 -4.99834 -13.2395 0.803075 1.4456 -1.68305 8.76157 -9.69062 11.7135 -6.99391 36.8053 4.23368 0.0180848 -21.6882 7.00515 -0.549481 -9.55944 3.04243 -6.7192 -15.3436 7.41591 -1.49457 36.3452 9.42016 -0.907051 -18.517 -6.31969 0.774582 -11.6451 -0.833433 1.44688 2.87013 -3.36952 1.44687 2.87013 -3.36951 -1.45915 3.3132 7.51938 -23.0245 5.96452 -23.2918 -60.7194 44.3945 19.8838 15.345 1.6869 -28.3901 -3.65481 -0.398323 -4.3508 -6.36111e-015 -1.98785e-016 8.44835e-016 -4.77083e-015 -1.98785e-016 5.96354e-016 32.065 -3.88654 -0.605775 33.2529 -5.15263 -20.4094 11.3269 -32.5252 52.2762 -2.40937 -1.25367 -13.0938 8.54774e-015 3.18055e-015 1.98785e-016 6.16232e-015 0 -5.1684e-015 -5.08208 -8.21589 7.84673 
9.44262 89.1245 -5.3901 -2.6013 -7.06046 -14.0771 0.81505 1.83509 -1.86161 9.16296 -9.64548 11.0213 -9.02026 42.467 3.37079 2.85081 -25.5368 10.5367 -1.54174 -9.66382 3.78548 -7.24188 -15.8718 7.48073 -0.497834 42.0298 11.0932 -2.90865 -21.9142 -7.60978 1.34377 -11.8468 -0.806854 1.37558 3.64854 -3.70402 1.37558 3.64853 -3.70402 -0.853706 3.03373 7.88058 -22.7488 6.16853 -23.5048 -61.6655 44.7453 20.7981 15.0184 1.734 -28.1532 -2.8743 -0.276485 -4.53568 1.59028e-015 -3.97569e-016 9.93923e-017 3.18055e-015 0 3.97569e-016 29.6876 -4.56853 -3.60366 25.1291 -17.7472 -23.7197 6.20645 -24.7815 56.7322 -7.31788 0.620211 -15.7265 1.59028e-015 6.36111e-015 -4.77083e-015 -1.59028e-015 6.36111e-015 -3.18055e-015 -5.57236 -8.06052 8.48451 
9.71795 87.4137 -4.35166 -3.46446 -9.06569 -14.4339 0.827944 2.25521 -2.04899 9.79056 -9.40091 11.3562 -10.3956 47.6832 3.53173 4.87264 -29.0149 11.7895 -2.45776 -9.81321 4.13278 -7.33023 -15.9214 6.27009 -1.65828 47.0251 13.2794 -4.23312 -25.1215 -7.8919 2.1074 -12.0966 -0.678022 1.37463 4.48711 -4.05287 1.37463 4.48711 -4.05287 -0.644236 2.22644 8.19329 -22.4613 6.68449 -22.7276 -61.6362 45.823 20.64 14.9855 1.57778 -27.6602 -3.02875 -0.244636 -4.18259 1.59028e-015 1.59028e-015 -7.95139e-016 -1.59028e-015 1.59028e-015 -1.98785e-016 26.7357 -4.10047 -5.30877 14.7802 -34.2544 -29.3206 -1.93522 -14.2766 64.1039 -9.46082 3.11301 -16.5364 3.18055e-015 0 1.59028e-015 3.18055e-015 0 -0 -5.65195 -7.60887 8.88186 
10.0526 85.8592 -3.78824 -3.99455 -9.42878 -14.0188 0.840482 2.27764 -2.05716 10.5781 -10.6424 12.261 -10.7935 52.4335 3.87313 6.10266 -31.8474 11.5909 -3.18649 -10.0074 4.08115 -7.64031 -16.9498 6.39227 -0.0796282 51.1518 12.2289 -5.69827 -27.5498 -8.65988 2.8934 -12.3021 -0.534484 1.39934 4.53171 -4.05608 1.39934 4.53171 -4.05606 -0.125961 1.81975 8.00501 -22.3589 6.83903 -22.3201 -61.2531 46.3015 19.8318 16.6058 6.59931 -26.3011 -2.54478 -0.258969 -4.48155 1.59028e-015 0 -0 3.18055e-015 0 7.95139e-016 22.9062 -3.60351 -6.42874 -1.7788 -51.7221 -41.151 -8.22215 -3.44161 74.8758 -10.6594 2.52073 -14.6872 -0 -9.54166e-015 -0 -0 -6.36111e-015 -0 -5.98955 -6.99911 8.92696 
10.3558 84.5125 -3.47674 -4.1092 -9.57689 -12.3875 0.647102 2.17616 -1.94562 11.0998 -12.2547 12.272 -11.045 56.3317 1.86449 8.5485 -33.6196 13.7191 -3.56111 -10.1425 3.96784 -7.89304 -17.5781 6.05328 1.30612 54.4912 10.8907 -6.81866 -29.6659 -9.83099 3.65669 -12.4421 -0.55407 1.07001 4.33527 -3.83054 1.07001 4.33528 -3.83055 1.18437 1.73897 7.06069 -22.6393 6.51356 -21.8665 -61.3205 46.6255 19.7348 15.0958 1.22716 -26.8884 -3.27187 -0.386764 -2.94864 -4.77083e-015 3.97569e-016 1.68967e-015 -1.59028e-015 3.97569e-016 1.09332e-015 19.7199 -3.4811 -7.91831 -25.4763 -64.1898 -57.8396 -5.61782 4.69316 85.3001 -14.5461 4.86859 -14.3242 -6.36111e-015 3.18055e-015 3.18055e-015 -6.36111e-015 0 -0 -6.67486 -7.00591 8.50692 
10.7178 83.6755 -3.32143 -4.10493 -9.87405 -9.75866 0.456802 2.17457 -1.94909 11.179 -13.691 11.3983 -10.8992 58.8612 0.257403 10.1802 -34.4596 14.741 -3.66592 -10.1972 3.86564 -7.96601 -17.259 5.95204 2.39153 56.235 8.38926 -6.66456 -31.2259 -10.2499 4.25124 -12.4955 -0.782709 0.783501 4.33641 -3.85248 0.783501 4.33642 -3.8525 1.99822 0.680758 6.3664 -22.5693 7.16893 -21.2329 -60.3882 46.0813 18.9678 15.3149 1.42323 -27.8455 -2.57523 -0.237037 -2.67878 -6.36111e-015 4.96962e-016 1.61513e-016 -1.43323e-033 3.47873e-016 2.36057e-016 15.1808 -2.27465 -9.57053 -37.49 -72.1615 -65.3376 -5.38456 6.45869 92.9008 -15.4189 6.28616 -13.0866 6.36111e-015 3.18055e-015 3.18055e-015 6.36111e-015 3.18056e-015 -0 -6.95254 -6.1949 8.11943 
10.9448 83.3337 -3.44366 -4.02313 -9.53414 -6.7751 0.278432 2.03543 -1.89464 11.218 -15.4261 10.4872 -9.87031 60.2582 -1.98841 11.0776 -34.4637 15.0152 -3.59962 -10.1934 3.79189 -7.38978 -16.8772 6.07252 2.67605 56.686 6.90803 -6.42822 -31.9599 -11.6357 4.72114 -12.4453 -1.28474 0.536756 4.06218 -3.76942 0.536757 4.06218 -3.76942 2.33227 -0.0319214 5.48156 -23.187 7.6538 -20.397 -58.278 44.9496 17.9033 15.2519 1.34524 -28.7153 -2.01842 -0.172012 -3.29138 2.75869e-032 1.59028e-015 -9.93923e-016 3.18055e-015 1.19271e-015 -0 12.1654 -1.11998 -9.16185 -44.5717 -77.0579 -66.3869 -9.5181 6.05943 98.1554 -16.821 5.4341 -11.7942 4.77083e-015 0 3.18055e-015 6.36111e-015 -3.18056e-015 3.18055e-015 -6.94094 -5.53486 7.34916 
11.2437 83.7212 -3.76189 -3.79928 -9.04911 -3.85315 -0.036975 1.94762 -1.59423 10.9794 -16.719 8.94618 -9.15567 59.6784 -3.4096 11.0753 -33.4095 14.4465 -3.17678 -10.1229 3.64234 -7.14803 -16.0948 6.10199 3.97271 55.3333 4.81069 -6.21982 -31.4737 -13.1137 5.05464 -12.3815 -1.60448 0.048988 3.89454 -3.19476 0.0489871 3.89454 -3.19477 3.17091 -1.25953 3.94863 -24.0941 8.40792 -19.192 -56.1175 44.6863 16.5948 15.237 0.507192 -29.4483 -1.78895 -0.328671 -3.25146 3.18055e-015 -2.38542e-015 -0 3.18055e-015 -2.38542e-015 -3.97569e-016 9.53752 0.613145 -7.7982 -43.6709 -82.3003 -60.3008 -12.9685 5.3889 102.352 -18.3464 5.58192 -10.7185 1.59028e-015 -3.18055e-015 1.59028e-015 -0 -3.18056e-015 -0 -6.78655 -4.80553 6.04592 
11.5562 84.9177 -4.20209 -3.48487 -8.11642 -1.44537 -0.428107 1.75912 -1.24603 10.568 -17.2771 8.89013 -6.31285 57.0269 -6.64843 10.1722 -31.2947 13.0669 -2.55048 -10.0409 3.34153 -6.99575 -14.9749 5.32729 3.84672 51.9691 3.63177 -5.14748 -29.7569 -13.3575 5.01821 -12.3404 -1.66154 -0.6232 3.52524 -2.51012 -0.623199 3.52525 -2.51012 3.95637 -2.04502 2.39423 -25.1962 8.6965 -17.9859 -53.5903 41.8768 15.4766 15.0069 1.05822 -30.7342 -0.983769 -0.176709 -2.57087 0 4.77083e-015 -0 -1.32417e-031 4.77083e-015 1.59028e-015 7.05638 1.9508 -5.24576 9.21201 -84.6458 -3.67975 -14.8667 4.58676 105.763 -19.3669 6.42464 -10.8752 8.82781e-032 6.36111e-015 -7.95139e-016 -4.41391e-032 3.18056e-015 7.95139e-016 -6.73323 -4.09265 4.73548 
11.8955 86.6326 -4.90564 -3.07059 -6.6321 0.632843 -0.750109 1.47332 -0.774194 9.74119 -17.6341 7.3031 -5.82503 52.5298 -6.42288 8.58222 -28.2736 11.1468 -1.79357 -9.94255 2.91435 -7.26464 -13.8768 4.03494 3.5848 47.0802 3.02145 -4.0219 -26.9378 -13.5275 4.67018 -12.2928 -1.53083 -1.19204 2.95516 -1.56663 -1.19204 2.95516 -1.56663 4.51474 -2.06311 0.637084 -26.6611 8.37008 -17.2962 -52.4232 40.7261 15.1781 15.7031 1.39955 -30.69 -0.130414 0.0178855 -2.01574 4.41391e-032 -1.59028e-015 1.59028e-015 6.62086e-032 -1.59028e-015 2.38542e-015 5.27621 2.3649 -2.44776 46.1834 -77.8948 36.1523 -15.7441 3.76566 108.541 -20.1214 6.06519 -10.7787 7.95139e-016 1.59028e-015 3.97569e-016 -7.95139e-016 1.59028e-015 -5.96354e-016 -6.93319 -4.28996 3.19253 
12.1721 88.6178 -5.64413 -2.82001 -4.95437 2.098 -1.01006 1.15249 -0.318031 8.92233 -17.3407 7.23938 -3.92331 46.8899 -7.47519 6.72632 -24.7375 9.02626 -1.02727 -9.86751 2.38998 -7.30356 -12.486 3.04006 2.95186 40.9081 2.32981 -2.59664 -23.3596 -13.2163 4.2002 -12.2235 -1.323 -1.6478 2.31001 -0.645097 -1.6478 2.31001 -0.645098 4.81369 -1.93635 -0.747641 -27.432 7.75602 -16.3473 -51.5697 38.4126 13.8883 15.5033 2.50996 -29.7992 0.762968 0.314743 -2.17277 -3.18055e-015 6.36111e-015 -1.59028e-015 8.82782e-032 3.18056e-015 -1.59028e-015 4.26629 2.5598 0.297411 49.4883 -66.6272 42.9638 -18.0964 2.22228 108.84 -21.2593 6.86019 -11.3142 -1.20693e-033 3.97569e-016 1.73937e-016 -1.98785e-016 3.97569e-016 2.67117e-016 -7.17631 -4.33481 1.96327 
